<?xml version="1.0" encoding="UTF-8" standalone="no"?>
<!-- Created with Inkscape (http://www.inkscape.org/) -->

<svg
   xmlns:dc="http://purl.org/dc/elements/1.1/"
   xmlns:cc="http://creativecommons.org/ns#"
   xmlns:rdf="http://www.w3.org/1999/02/22-rdf-syntax-ns#"
   xmlns:svg="http://www.w3.org/2000/svg"
   xmlns="http://www.w3.org/2000/svg"
   xmlns:xlink="http://www.w3.org/1999/xlink"
   xmlns:sodipodi="http://sodipodi.sourceforge.net/DTD/sodipodi-0.dtd"
   xmlns:inkscape="http://www.inkscape.org/namespaces/inkscape"
   width="210mm"
   height="297mm"
   viewBox="0 0 210 297"
   version="1.1"
   id="svg8"
   sodipodi:docname="Distributed Array.svg"
   inkscape:version="0.92.3 (2405546, 2018-03-11)">
  <defs
     id="defs2">
    <linearGradient
       inkscape:collect="always"
       id="linearGradient3591">
      <stop
         style="stop-color:#ff6600;stop-opacity:1;"
         offset="0"
         id="stop3587" />
      <stop
         style="stop-color:#ffd500;stop-opacity:1"
         offset="1"
         id="stop3589" />
    </linearGradient>
    <linearGradient
       inkscape:collect="always"
       id="linearGradient1853">
      <stop
         style="stop-color:#000000;stop-opacity:1;"
         offset="0"
         id="stop1849" />
      <stop
         style="stop-color:#f9f9f9;stop-opacity:1"
         offset="1"
         id="stop1851" />
    </linearGradient>
    <linearGradient
       inkscape:collect="always"
       id="linearGradient1305">
      <stop
         style="stop-color:#3d3d3d;stop-opacity:1"
         offset="0"
         id="stop1301" />
      <stop
         style="stop-color:#666666;stop-opacity:0;"
         offset="1"
         id="stop1303" />
    </linearGradient>
    <linearGradient
       inkscape:collect="always"
       xlink:href="#linearGradient1305"
       id="linearGradient1309"
       x1="-274.96307"
       y1="1117.2084"
       x2="-137.48154"
       y2="1011.375"
       gradientUnits="userSpaceOnUse" />
    <radialGradient
       inkscape:collect="always"
       xlink:href="#linearGradient1853"
       id="radialGradient1855"
       cx="-114.56794"
       cy="1334.3199"
       fx="-114.56794"
       fy="1334.3199"
       r="112.09791"
       gradientTransform="matrix(0.15484735,0,0,0.08940117,78.135673,-7.2208377)"
       gradientUnits="userSpaceOnUse" />
    <radialGradient
       inkscape:collect="always"
       xlink:href="#linearGradient1853"
       id="radialGradient1855-7"
       cx="-114.56794"
       cy="1334.3199"
       fx="-114.56794"
       fy="1334.3199"
       r="112.09791"
       gradientTransform="matrix(0.15484735,0,0,0.08940116,99.762111,-6.9474397)"
       gradientUnits="userSpaceOnUse" />
    <radialGradient
       inkscape:collect="always"
       xlink:href="#linearGradient1853"
       id="radialGradient1855-76"
       cx="-114.56794"
       cy="1334.3199"
       fx="-114.56794"
       fy="1334.3199"
       r="112.09791"
       gradientTransform="matrix(0.15484735,0,0,0.08940116,121.45969,-6.9474397)"
       gradientUnits="userSpaceOnUse" />
    <radialGradient
       inkscape:collect="always"
       xlink:href="#linearGradient1853"
       id="radialGradient1855-5"
       cx="-114.56794"
       cy="1334.3199"
       fx="-114.56794"
       fy="1334.3199"
       r="112.09791"
       gradientTransform="matrix(0.15484735,0,0,0.08940116,143.15727,-6.9474397)"
       gradientUnits="userSpaceOnUse" />
    <radialGradient
       inkscape:collect="always"
       xlink:href="#linearGradient1853"
       id="radialGradient1855-4"
       cx="-114.56794"
       cy="1334.3199"
       fx="-114.56794"
       fy="1334.3199"
       r="112.09791"
       gradientTransform="matrix(0.15484735,0,0,0.08940116,88.913322,-13.210989)"
       gradientUnits="userSpaceOnUse" />
    <radialGradient
       inkscape:collect="always"
       xlink:href="#linearGradient1853"
       id="radialGradient1855-0"
       cx="-114.56794"
       cy="1334.3199"
       fx="-114.56794"
       fy="1334.3199"
       r="112.09791"
       gradientTransform="matrix(0.15484735,0,0,0.08940116,110.6109,-13.210999)"
       gradientUnits="userSpaceOnUse" />
    <radialGradient
       inkscape:collect="always"
       xlink:href="#linearGradient1853"
       id="radialGradient1855-06"
       cx="-114.56794"
       cy="1334.3199"
       fx="-114.56794"
       fy="1334.3199"
       r="112.09791"
       gradientTransform="matrix(0.15484735,0,0,0.08940116,132.30848,-13.210989)"
       gradientUnits="userSpaceOnUse" />
    <radialGradient
       inkscape:collect="always"
       xlink:href="#linearGradient1853"
       id="radialGradient1855-9"
       cx="-114.56794"
       cy="1334.3199"
       fx="-114.56794"
       fy="1334.3199"
       r="112.09791"
       gradientTransform="matrix(0.15484735,0,0,0.08940116,154.00605,-13.210989)"
       gradientUnits="userSpaceOnUse" />
    <radialGradient
       inkscape:collect="always"
       xlink:href="#linearGradient1853"
       id="radialGradient1855-56"
       cx="-114.56794"
       cy="1334.3199"
       fx="-114.56794"
       fy="1334.3199"
       r="112.09791"
       gradientTransform="matrix(0.15484735,0,0,0.08940116,100.21406,-18.919401)"
       gradientUnits="userSpaceOnUse" />
    <radialGradient
       inkscape:collect="always"
       xlink:href="#linearGradient1853"
       id="radialGradient1855-3"
       cx="-114.56794"
       cy="1334.3199"
       fx="-114.56794"
       fy="1334.3199"
       r="112.09791"
       gradientTransform="matrix(0.15484735,0,0,0.08940116,121.91164,-18.919401)"
       gradientUnits="userSpaceOnUse" />
    <radialGradient
       inkscape:collect="always"
       xlink:href="#linearGradient1853"
       id="radialGradient1855-08"
       cx="-114.56794"
       cy="1334.3199"
       fx="-114.56794"
       fy="1334.3199"
       r="112.09791"
       gradientTransform="matrix(0.15484735,0,0,0.08940116,143.60922,-18.919401)"
       gradientUnits="userSpaceOnUse" />
    <radialGradient
       inkscape:collect="always"
       xlink:href="#linearGradient1853"
       id="radialGradient1855-8"
       cx="-114.56794"
       cy="1334.3199"
       fx="-114.56794"
       fy="1334.3199"
       r="112.09791"
       gradientTransform="matrix(0.15484735,0,0,0.08940116,165.3068,-18.919401)"
       gradientUnits="userSpaceOnUse" />
    <radialGradient
       inkscape:collect="always"
       xlink:href="#linearGradient1853"
       id="radialGradient1855-80"
       cx="-114.56794"
       cy="1334.3199"
       fx="-114.56794"
       fy="1334.3199"
       r="112.09791"
       gradientTransform="matrix(0.15484735,0,0,0.08940116,111.06285,-25.182955)"
       gradientUnits="userSpaceOnUse" />
    <radialGradient
       inkscape:collect="always"
       xlink:href="#linearGradient1853"
       id="radialGradient1855-91"
       cx="-114.56794"
       cy="1334.3199"
       fx="-114.56794"
       fy="1334.3199"
       r="112.09791"
       gradientTransform="matrix(0.15484735,0,0,0.08940116,132.76043,-25.182955)"
       gradientUnits="userSpaceOnUse" />
    <radialGradient
       inkscape:collect="always"
       xlink:href="#linearGradient1853"
       id="radialGradient1855-07"
       cx="-114.56794"
       cy="1334.3199"
       fx="-114.56794"
       fy="1334.3199"
       r="112.09791"
       gradientTransform="matrix(0.15484735,0,0,0.08940116,154.45801,-25.182955)"
       gradientUnits="userSpaceOnUse" />
    <radialGradient
       inkscape:collect="always"
       xlink:href="#linearGradient1853"
       id="radialGradient1855-00"
       cx="-114.56794"
       cy="1334.3199"
       fx="-114.56794"
       fy="1334.3199"
       r="112.09791"
       gradientTransform="matrix(0.15484735,0,0,0.08940116,176.15558,-25.182955)"
       gradientUnits="userSpaceOnUse" />
    <radialGradient
       inkscape:collect="always"
       xlink:href="#linearGradient3591"
       id="radialGradient3593"
       cx="-160.39513"
       cy="230.85417"
       fx="-160.39513"
       fy="230.85417"
       r="68.740761"
       gradientUnits="userSpaceOnUse"
       gradientTransform="matrix(0.34768584,-2.6234478e-8,1.8690901e-8,0.29157904,111.75159,45.030073)" />
  </defs>
  <sodipodi:namedview
     id="base"
     pagecolor="#ffffff"
     bordercolor="#666666"
     borderopacity="1.0"
     inkscape:pageopacity="0.0"
     inkscape:pageshadow="2"
     inkscape:zoom="0.70710678"
     inkscape:cx="301.67787"
     inkscape:cy="569.41333"
     inkscape:document-units="px"
     inkscape:current-layer="layer1"
     showgrid="true"
     showborder="true"
     inkscape:snap-intersection-paths="false"
     showguides="false"
     inkscape:window-width="1920"
     inkscape:window-height="1017"
     inkscape:window-x="-8"
     inkscape:window-y="487"
     inkscape:window-maximized="1">
    <inkscape:grid
       type="axonomgrid"
       id="grid815"
       units="px"
       empspacing="5"
       spacingy="26.458333" />
  </sodipodi:namedview>
  <metadata
     id="metadata5">
    <rdf:RDF>
      <cc:Work
         rdf:about="">
        <dc:format>image/svg+xml</dc:format>
        <dc:type
           rdf:resource="http://purl.org/dc/dcmitype/StillImage" />
        <dc:title></dc:title>
      </cc:Work>
    </rdf:RDF>
  </metadata>
  <g
     inkscape:label="Layer 1"
     inkscape:groupmode="layer"
     id="layer1">
    <path
       style="opacity:1;fill:url(#linearGradient1309);fill-opacity:1;stroke:none;stroke-width:4.97744179;stroke-linecap:round;stroke-linejoin:round;stroke-miterlimit:4;stroke-dasharray:none;stroke-opacity:1"
       id="path817-9-2-47-2"
       ry="34.188328"
       rx="111.56873"
       cy="1071.8453"
       cx="-229.06332" />
    <path
       style="opacity:0.51099997;fill:#3d3d3d;fill-opacity:1;stroke:none;stroke-width:3.96875;stroke-linecap:round;stroke-linejoin:round;stroke-miterlimit:4;stroke-dasharray:none;stroke-opacity:1"
       id="path1320"
       sodipodi:type="arc"
       sodipodi:cx="-458.27176"
       sodipodi:cy="1090.75"
       sodipodi:rx="3.8592182e-011"
       sodipodi:ry="1.2320621e-010"
       sodipodi:start="0"
       sodipodi:end="0.083067724"
       sodipodi:open="true"
       d="m -1905.2559,4022.5198 a 3.3720698,2.130682e-5 0 0 1 -0.012,0" />
    <g
       id="g3676">
      <path
         id="path817-9-2-6-4-77"
         d="m 147.15042,94.804373 v 5.01084 h 0.0428 a 10.840382,3.6006836 0 0 0 -0.0141,0.0937 10.840382,3.6006836 0 0 0 10.8404,3.600657 10.840382,3.6006836 0 0 0 10.84034,-3.600657 10.840382,3.6006836 0 0 0 -0.0118,-0.11108 v -4.99347 h -0.0361 a 10.840382,3.6006836 0 0 1 -10.81793,3.45161 10.840382,3.6006836 0 0 1 -10.82445,-3.45161 z"
         style="opacity:1;fill:#ffdd55;fill-opacity:1;stroke:none;stroke-width:0.50351304;stroke-linecap:round;stroke-linejoin:round;stroke-miterlimit:4;stroke-dasharray:none;stroke-opacity:1"
         inkscape:connector-curvature="0" />
      <ellipse
         ry="3.6006837"
         rx="10.840383"
         cy="94.655266"
         cx="157.99397"
         id="path817-9-2-48-32"
         style="opacity:1;fill:#00e0c4;fill-opacity:1;stroke:none;stroke-width:0.50351304;stroke-linecap:round;stroke-linejoin:round;stroke-miterlimit:4;stroke-dasharray:none;stroke-opacity:1" />
      <path
         inkscape:connector-curvature="0"
         id="path817-9-2-47-0-0-62"
         d="m 154.37643,93.529833 a 4.2854619,3.6006833 0 0 0 3.96777,2.24626 4.2854619,3.6006833 0 0 0 3.95842,-2.22443 10.840382,3.6006833 0 0 1 -3.88757,0.24026 10.840382,3.6006833 0 0 1 -4.03862,-0.26209 z"
         style="opacity:1;fill:#4d4d4d;fill-opacity:1;stroke:none;stroke-width:0.31658277;stroke-linecap:round;stroke-linejoin:round;stroke-miterlimit:4;stroke-dasharray:none;stroke-opacity:1" />
      <path
         id="path817-9-2-6-4-01"
         d="m 125.45285,94.804373 v 5.01084 h 0.0428 a 10.840382,3.6006836 0 0 0 -0.0141,0.0937 10.840382,3.6006836 0 0 0 10.8404,3.600657 10.840382,3.6006836 0 0 0 10.84034,-3.600657 10.840382,3.6006836 0 0 0 -0.0118,-0.11108 v -4.99347 h -0.0361 a 10.840382,3.6006836 0 0 1 -10.81792,3.45161 10.840382,3.6006836 0 0 1 -10.82445,-3.45161 z"
         style="opacity:1;fill:#ffdd55;fill-opacity:1;stroke:none;stroke-width:0.50351304;stroke-linecap:round;stroke-linejoin:round;stroke-miterlimit:4;stroke-dasharray:none;stroke-opacity:1"
         inkscape:connector-curvature="0" />
      <ellipse
         ry="3.6006837"
         rx="10.840383"
         cy="94.655266"
         cx="136.29639"
         id="path817-9-2-48-18"
         style="opacity:1;fill:#00e0c4;fill-opacity:1;stroke:none;stroke-width:0.50351304;stroke-linecap:round;stroke-linejoin:round;stroke-miterlimit:4;stroke-dasharray:none;stroke-opacity:1" />
      <path
         id="path817-9-2-6-4-95"
         d="m 103.75527,94.804373 v 5.01084 h 0.0428 a 10.840382,3.6006836 0 0 0 -0.0141,0.0937 10.840382,3.6006836 0 0 0 10.8404,3.600657 10.840382,3.6006836 0 0 0 10.84034,-3.600657 10.840382,3.6006836 0 0 0 -0.0118,-0.11108 v -4.99347 h -0.0361 a 10.840382,3.6006836 0 0 1 -10.81794,3.45161 10.840382,3.6006836 0 0 1 -10.82444,-3.45161 z"
         style="opacity:1;fill:#ffdd55;fill-opacity:1;stroke:none;stroke-width:0.50351304;stroke-linecap:round;stroke-linejoin:round;stroke-miterlimit:4;stroke-dasharray:none;stroke-opacity:1"
         inkscape:connector-curvature="0" />
      <ellipse
         ry="3.6006837"
         rx="10.840383"
         cy="94.655266"
         cx="114.59882"
         id="path817-9-2-48-3"
         style="opacity:1;fill:#00e0c4;fill-opacity:1;stroke:none;stroke-width:0.50351304;stroke-linecap:round;stroke-linejoin:round;stroke-miterlimit:4;stroke-dasharray:none;stroke-opacity:1" />
      <path
         id="path817-9-2-6-4-7"
         d="m 82.057691,94.804373 v 5.01084 h 0.04281 a 10.840382,3.6006836 0 0 0 -0.01413,0.0937 10.840382,3.6006836 0 0 0 10.840398,3.600657 10.840382,3.6006836 0 0 0 10.840351,-3.600657 10.840382,3.6006836 0 0 0 -0.0118,-0.11108 v -4.99347 h -0.0361 a 10.840382,3.6006836 0 0 1 -10.817925,3.45162 10.840382,3.6006836 0 0 1 -10.824446,-3.45161 z"
         style="opacity:1;fill:#ffdd55;fill-opacity:1;stroke:none;stroke-width:0.50351304;stroke-linecap:round;stroke-linejoin:round;stroke-miterlimit:4;stroke-dasharray:none;stroke-opacity:1"
         inkscape:connector-curvature="0" />
      <ellipse
         ry="3.6006837"
         rx="10.840383"
         cy="94.655266"
         cx="92.901245"
         id="path817-9-2-48-68"
         style="opacity:1;fill:#00e0c4;fill-opacity:1;stroke:none;stroke-width:0.50351304;stroke-linecap:round;stroke-linejoin:round;stroke-miterlimit:4;stroke-dasharray:none;stroke-opacity:1" />
      <path
         id="path817-9-2-6-4-0"
         d="m 136.26553,101.06792 v 5.01084 h 0.0428 a 10.840382,3.6006836 0 0 0 -0.0141,0.0937 10.840382,3.6006836 0 0 0 10.84039,3.60066 10.840382,3.6006836 0 0 0 10.84034,-3.60066 10.840382,3.6006836 0 0 0 -0.0118,-0.11108 v -4.99347 h -0.0361 a 10.840382,3.6006836 0 0 1 -10.81793,3.45161 10.840382,3.6006836 0 0 1 -10.82444,-3.45161 z"
         style="opacity:1;fill:#ffdd55;fill-opacity:1;stroke:none;stroke-width:0.50351304;stroke-linecap:round;stroke-linejoin:round;stroke-miterlimit:4;stroke-dasharray:none;stroke-opacity:1"
         inkscape:connector-curvature="0" />
      <ellipse
         ry="3.6006837"
         rx="10.840383"
         cy="100.91883"
         cx="147.10905"
         id="path817-9-2-48-25"
         style="opacity:1;fill:#00e0c4;fill-opacity:1;stroke:none;stroke-width:0.50351304;stroke-linecap:round;stroke-linejoin:round;stroke-miterlimit:4;stroke-dasharray:none;stroke-opacity:1" />
      <path
         id="path817-9-2-6-4-99"
         d="m 114.60406,101.06792 v 5.01084 h 0.0428 a 10.840382,3.6006836 0 0 0 -0.0141,0.0937 10.840382,3.6006836 0 0 0 10.8404,3.60066 10.840382,3.6006836 0 0 0 10.84035,-3.60066 10.840382,3.6006836 0 0 0 -0.0118,-0.11108 v -4.99347 h -0.0361 a 10.840382,3.6006836 0 0 1 -10.81794,3.45161 10.840382,3.6006836 0 0 1 -10.82444,-3.45161 z"
         style="opacity:1;fill:#ffdd55;fill-opacity:1;stroke:none;stroke-width:0.50351304;stroke-linecap:round;stroke-linejoin:round;stroke-miterlimit:4;stroke-dasharray:none;stroke-opacity:1"
         inkscape:connector-curvature="0" />
      <ellipse
         ry="3.6006837"
         rx="10.840383"
         cy="100.91883"
         cx="125.44761"
         id="path817-9-2-48-6"
         style="opacity:1;fill:#00e0c4;fill-opacity:1;stroke:none;stroke-width:0.50351304;stroke-linecap:round;stroke-linejoin:round;stroke-miterlimit:4;stroke-dasharray:none;stroke-opacity:1" />
      <path
         id="path817-9-2-6-4-55"
         d="m 92.84169,100.97421 v 5.01085 h 0.04281 a 10.840382,3.6006836 0 0 0 -0.01413,0.0937 10.840382,3.6006836 0 0 0 10.8404,3.60066 10.840382,3.6006836 0 0 0 10.84035,-3.60066 10.840382,3.6006836 0 0 0 -0.0118,-0.11108 v -4.99347 h -0.0361 a 10.840382,3.6006836 0 0 1 -10.81794,3.45161 10.840382,3.6006836 0 0 1 -10.824446,-3.45161 z"
         style="opacity:1;fill:#ffdd55;fill-opacity:1;stroke:none;stroke-width:0.50351304;stroke-linecap:round;stroke-linejoin:round;stroke-miterlimit:4;stroke-dasharray:none;stroke-opacity:1"
         inkscape:connector-curvature="0" />
      <ellipse
         ry="3.6006837"
         rx="10.840383"
         cy="100.82511"
         cx="103.68524"
         id="path817-9-2-48-1"
         style="opacity:1;fill:#00e0c4;fill-opacity:1;stroke:none;stroke-width:0.50351304;stroke-linecap:round;stroke-linejoin:round;stroke-miterlimit:4;stroke-dasharray:none;stroke-opacity:1" />
      <path
         id="path817-9-2-6-4-53"
         d="m 71.208903,101.06792 v 5.01084 h 0.04281 a 10.840382,3.6006836 0 0 0 -0.01413,0.0937 10.840382,3.6006836 0 0 0 10.840398,3.60066 10.840382,3.6006836 0 0 0 10.84035,-3.60066 10.840382,3.6006836 0 0 0 -0.01183,-0.11108 v -4.99347 h -0.03611 a 10.840382,3.6006836 0 0 1 -10.817938,3.45161 10.840382,3.6006836 0 0 1 -10.824441,-3.45161 z"
         style="opacity:1;fill:#ffdd55;fill-opacity:1;stroke:none;stroke-width:0.50351304;stroke-linecap:round;stroke-linejoin:round;stroke-miterlimit:4;stroke-dasharray:none;stroke-opacity:1"
         inkscape:connector-curvature="0" />
      <ellipse
         ry="3.6006837"
         rx="10.840383"
         cy="100.91883"
         cx="82.05246"
         id="path817-9-2-48-7"
         style="opacity:1;fill:#00e0c4;fill-opacity:1;stroke:none;stroke-width:0.50351304;stroke-linecap:round;stroke-linejoin:round;stroke-miterlimit:4;stroke-dasharray:none;stroke-opacity:1" />
      <path
         id="path817-9-2-6-4-9"
         d="m 125.41674,107.34884 v 5.01084 h 0.0428 a 10.840382,3.6006836 0 0 0 -0.0141,0.0937 10.840382,3.6006836 0 0 0 10.8404,3.60067 10.840382,3.6006836 0 0 0 10.84034,-3.60067 10.840382,3.6006836 0 0 0 -0.0118,-0.11107 v -4.99348 h -0.0361 a 10.840382,3.6006836 0 0 1 -10.81793,3.45161 10.840382,3.6006836 0 0 1 -10.82444,-3.45161 z"
         style="opacity:1;fill:#ffdd55;fill-opacity:1;stroke:none;stroke-width:0.50351304;stroke-linecap:round;stroke-linejoin:round;stroke-miterlimit:4;stroke-dasharray:none;stroke-opacity:1"
         inkscape:connector-curvature="0" />
      <ellipse
         ry="3.6006837"
         rx="10.840383"
         cy="107.19975"
         cx="136.26028"
         id="path817-9-2-48-9"
         style="opacity:1;fill:#00e0c4;fill-opacity:1;stroke:none;stroke-width:0.50351304;stroke-linecap:round;stroke-linejoin:round;stroke-miterlimit:4;stroke-dasharray:none;stroke-opacity:1" />
      <path
         id="path817-9-2-6-4-5"
         d="m 103.71915,107.34884 v 5.01084 h 0.0428 a 10.840382,3.6006836 0 0 0 -0.0141,0.0937 10.840382,3.6006836 0 0 0 10.8404,3.60067 10.840382,3.6006836 0 0 0 10.84035,-3.60067 10.840382,3.6006836 0 0 0 -0.0118,-0.11107 v -4.99348 h -0.0361 a 10.840382,3.6006836 0 0 1 -10.81793,3.45161 10.840382,3.6006836 0 0 1 -10.82445,-3.45161 z"
         style="opacity:1;fill:#ffdd55;fill-opacity:1;stroke:none;stroke-width:0.50351304;stroke-linecap:round;stroke-linejoin:round;stroke-miterlimit:4;stroke-dasharray:none;stroke-opacity:1"
         inkscape:connector-curvature="0" />
      <ellipse
         ry="3.6006837"
         rx="10.840383"
         cy="107.19975"
         cx="114.56271"
         id="path817-9-2-48-2"
         style="opacity:1;fill:#00e0c4;fill-opacity:1;stroke:none;stroke-width:0.50351304;stroke-linecap:round;stroke-linejoin:round;stroke-miterlimit:4;stroke-dasharray:none;stroke-opacity:1" />
      <path
         id="path817-9-2-6-40"
         d="m 82.021578,107.34884 v 5.01084 h 0.04281 a 10.840382,3.6006836 0 0 0 -0.01413,0.0937 10.840382,3.6006836 0 0 0 10.840398,3.60067 10.840382,3.6006836 0 0 0 10.840354,-3.60067 10.840382,3.6006836 0 0 0 -0.0118,-0.11107 v -4.99348 h -0.0361 a 10.840382,3.6006836 0 0 1 -10.817942,3.45161 10.840382,3.6006836 0 0 1 -10.824442,-3.45161 z"
         style="opacity:1;fill:#ffdd55;fill-opacity:1;stroke:none;stroke-width:0.50351304;stroke-linecap:round;stroke-linejoin:round;stroke-miterlimit:4;stroke-dasharray:none;stroke-opacity:1"
         inkscape:connector-curvature="0" />
      <ellipse
         ry="3.6006837"
         rx="10.840383"
         cy="107.19975"
         cx="92.865135"
         id="path817-9-2-0"
         style="opacity:1;fill:#00e0c4;fill-opacity:1;stroke:none;stroke-width:0.50351304;stroke-linecap:round;stroke-linejoin:round;stroke-miterlimit:4;stroke-dasharray:none;stroke-opacity:1" />
      <path
         id="path817-9-2-6-44"
         d="m 60.29532,107.23776 v 5.01084 h 0.04281 a 10.840382,3.6006836 0 0 0 -0.01413,0.0937 10.840382,3.6006836 0 0 0 10.840398,3.60066 10.840382,3.6006836 0 0 0 10.84035,-3.60066 10.840382,3.6006836 0 0 0 -0.01183,-0.11108 v -4.99348 h -0.03611 a 10.840382,3.6006836 0 0 1 -10.817938,3.45161 10.840382,3.6006836 0 0 1 -10.824446,-3.45161 z"
         style="opacity:1;fill:#ffdd55;fill-opacity:1;stroke:none;stroke-width:0.50351304;stroke-linecap:round;stroke-linejoin:round;stroke-miterlimit:4;stroke-dasharray:none;stroke-opacity:1"
         inkscape:connector-curvature="0" />
      <ellipse
         ry="3.6006837"
         rx="10.840383"
         cy="107.08866"
         cx="71.13887"
         id="path817-9-2-8"
         style="opacity:1;fill:#00e0c4;fill-opacity:1;stroke:none;stroke-width:0.50351304;stroke-linecap:round;stroke-linejoin:round;stroke-miterlimit:4;stroke-dasharray:none;stroke-opacity:1" />
      <path
         inkscape:connector-curvature="0"
         id="path817-9-2-6"
         d="m 49.475208,113.61239 v 5.01084 h 0.04281 a 10.840382,3.6006835 0 0 0 -0.01413,0.0937 10.840382,3.6006835 0 0 0 10.840398,3.60066 10.840382,3.6006835 0 0 0 10.840346,-3.60066 10.840382,3.6006835 0 0 0 -0.01183,-0.11108 v -4.99347 h -0.03611 a 10.840382,3.6006835 0 0 1 -10.817933,3.45161 10.840382,3.6006835 0 0 1 -10.824446,-3.45161 z"
         style="opacity:1;fill:#ffdd55;fill-opacity:1;stroke:none;stroke-width:0.50351304;stroke-linecap:round;stroke-linejoin:round;stroke-miterlimit:4;stroke-dasharray:none;stroke-opacity:1" />
      <ellipse
         ry="3.6006837"
         rx="10.840383"
         cy="113.46329"
         cx="60.318752"
         id="path817-9-2"
         style="opacity:1;fill:#00e0c4;fill-opacity:1;stroke:none;stroke-width:0.50351304;stroke-linecap:round;stroke-linejoin:round;stroke-miterlimit:4;stroke-dasharray:none;stroke-opacity:1" />
      <path
         id="path817-9-2-6-2"
         d="m 71.208903,113.59502 v 5.01084 h 0.04281 a 10.840382,3.6006836 0 0 0 -0.01413,0.0937 10.840382,3.6006836 0 0 0 10.840398,3.60066 10.840382,3.6006836 0 0 0 10.84035,-3.60066 10.840382,3.6006836 0 0 0 -0.01183,-0.11108 v -4.99347 h -0.03611 a 10.840382,3.6006836 0 0 1 -10.817938,3.45161 10.840382,3.6006836 0 0 1 -10.824441,-3.45161 z"
         style="opacity:1;fill:#ffdd55;fill-opacity:1;stroke:none;stroke-width:0.50351304;stroke-linecap:round;stroke-linejoin:round;stroke-miterlimit:4;stroke-dasharray:none;stroke-opacity:1"
         inkscape:connector-curvature="0" />
      <ellipse
         ry="3.6006837"
         rx="10.840383"
         cy="113.44592"
         cx="82.05246"
         id="path817-9-2-9"
         style="opacity:1;fill:#00e0c4;fill-opacity:1;stroke:none;stroke-width:0.50351304;stroke-linecap:round;stroke-linejoin:round;stroke-miterlimit:4;stroke-dasharray:none;stroke-opacity:1" />
      <path
         id="path817-9-2-6-0"
         d="m 92.90648,113.59502 v 5.01084 h 0.04281 a 10.840382,3.6006836 0 0 0 -0.01413,0.0937 10.840382,3.6006836 0 0 0 10.8404,3.60066 10.840382,3.6006836 0 0 0 10.84034,-3.60066 10.840382,3.6006836 0 0 0 -0.0118,-0.11108 v -4.99347 h -0.0361 a 10.840382,3.6006836 0 0 1 -10.81793,3.45161 10.840382,3.6006836 0 0 1 -10.824447,-3.45161 z"
         style="opacity:1;fill:#ffdd55;fill-opacity:1;stroke:none;stroke-width:0.50351304;stroke-linecap:round;stroke-linejoin:round;stroke-miterlimit:4;stroke-dasharray:none;stroke-opacity:1"
         inkscape:connector-curvature="0" />
      <ellipse
         ry="3.6006837"
         rx="10.840383"
         cy="113.44592"
         cx="103.75003"
         id="path817-9-2-4"
         style="opacity:1;fill:#00e0c4;fill-opacity:1;stroke:none;stroke-width:0.50351304;stroke-linecap:round;stroke-linejoin:round;stroke-miterlimit:4;stroke-dasharray:none;stroke-opacity:1" />
      <path
         id="path817-9-2-6-4"
         d="m 114.60406,113.59502 v 5.01084 h 0.0428 a 10.840382,3.6006836 0 0 0 -0.0141,0.0937 10.840382,3.6006836 0 0 0 10.8404,3.60066 10.840382,3.6006836 0 0 0 10.84035,-3.60066 10.840382,3.6006836 0 0 0 -0.0118,-0.11108 v -4.99347 h -0.0361 a 10.840382,3.6006836 0 0 1 -10.81794,3.45161 10.840382,3.6006836 0 0 1 -10.82444,-3.45161 z"
         style="opacity:1;fill:#ffdd55;fill-opacity:1;stroke:none;stroke-width:0.50351304;stroke-linecap:round;stroke-linejoin:round;stroke-miterlimit:4;stroke-dasharray:none;stroke-opacity:1"
         inkscape:connector-curvature="0" />
      <ellipse
         ry="3.6006837"
         rx="10.840383"
         cy="113.44592"
         cx="125.44761"
         id="path817-9-2-48"
         style="opacity:1;fill:#00e0c4;fill-opacity:1;stroke:none;stroke-width:0.50351304;stroke-linecap:round;stroke-linejoin:round;stroke-miterlimit:4;stroke-dasharray:none;stroke-opacity:1" />
      <path
         inkscape:connector-curvature="0"
         id="path817-9-2-47-0-0"
         d="m 56.356517,111.49195 a 4.285462,3.6006835 0 0 0 3.967767,2.24626 4.285462,3.6006835 0 0 0 3.958414,-2.22444 10.840382,3.6006835 0 0 1 -3.887562,0.24027 10.840382,3.6006835 0 0 1 -4.038619,-0.26209 z"
         style="opacity:1;fill:#4d4d4d;fill-opacity:1;stroke:none;stroke-width:0.31658277;stroke-linecap:round;stroke-linejoin:round;stroke-miterlimit:4;stroke-dasharray:none;stroke-opacity:1" />
      <path
         inkscape:connector-curvature="0"
         id="path817-9-2-47-0-0-9"
         d="m 77.982954,111.76534 a 4.2854619,3.6006833 0 0 0 3.967767,2.24626 4.2854619,3.6006833 0 0 0 3.958418,-2.22443 10.840382,3.6006833 0 0 1 -3.887561,0.24026 10.840382,3.6006833 0 0 1 -4.038624,-0.26209 z"
         style="opacity:1;fill:#4d4d4d;fill-opacity:1;stroke:none;stroke-width:0.31658277;stroke-linecap:round;stroke-linejoin:round;stroke-miterlimit:4;stroke-dasharray:none;stroke-opacity:1" />
      <path
         inkscape:connector-curvature="0"
         id="path817-9-2-47-0-7"
         d="m 82.021578,104.82605 a 10.840382,3.6006833 0 0 0 -7.141967,0.8979 10.614895,3.3000334 0 0 1 7.167018,-0.87035 10.614895,3.3000334 0 0 1 5.679087,0.5165 10.840382,3.6006833 0 0 0 -5.704138,-0.54405 z m -7.472907,0.9945 a 10.840382,3.6006833 0 0 0 -0.226565,0.0756 10.614895,3.3000334 0 0 1 0.226565,-0.0756 z m -0.791704,0.2771 a 10.840382,3.6006833 0 0 0 -0.07619,0.0311 10.614895,3.3000334 0 0 1 0.07619,-0.0311 z m -0.629291,0.27282 a 10.840382,3.6006833 0 0 0 -0.160406,0.0813 10.614895,3.3000334 0 0 1 0.160406,-0.0813 z m -0.476716,0.25268 a 10.840382,3.6006833 0 0 0 -1.46978,1.80357 10.840382,3.6006833 0 0 0 10.840398,3.60071 10.840382,3.6006833 0 0 0 10.840393,-3.60071 10.840382,3.6006833 0 0 0 -0.585884,-1.15396 10.614895,3.3000334 0 0 1 0.385453,0.88091 10.614895,3.3000334 0 0 1 -10.614911,3.3 10.614895,3.3000334 0 0 1 -10.614911,-3.3 10.614895,3.3000334 0 0 1 1.219242,-1.53052 z m 19.427434,0.4641 a 10.614895,3.3000334 0 0 1 0.188148,0.17601 10.840382,3.6006833 0 0 0 -0.188148,-0.17601 z"
         style="opacity:1;fill:#666666;fill-opacity:1;stroke:none;stroke-width:0.50351304;stroke-linecap:round;stroke-linejoin:round;stroke-miterlimit:4;stroke-dasharray:none;stroke-opacity:1" />
      <path
         inkscape:connector-curvature="0"
         id="path817-9-2-47-0-0-0"
         d="m 67.134166,105.50179 a 4.2854619,3.6006833 0 0 0 3.967766,2.24626 4.2854619,3.6006833 0 0 0 3.958419,-2.22444 10.840382,3.6006833 0 0 1 -3.887566,0.24027 10.840382,3.6006833 0 0 1 -4.038619,-0.26209 z"
         style="opacity:1;fill:#4d4d4d;fill-opacity:1;stroke:none;stroke-width:0.31658277;stroke-linecap:round;stroke-linejoin:round;stroke-miterlimit:4;stroke-dasharray:none;stroke-opacity:1" />
      <path
         inkscape:connector-curvature="0"
         id="path817-9-2-47-0-0-4"
         d="m 99.680535,111.76534 a 4.2854619,3.6006833 0 0 0 3.967765,2.24626 4.2854619,3.6006833 0 0 0 3.95842,-2.22443 10.840382,3.6006833 0 0 1 -3.88757,0.24026 10.840382,3.6006833 0 0 1 -4.038615,-0.26209 z"
         style="opacity:1;fill:#4d4d4d;fill-opacity:1;stroke:none;stroke-width:0.31658277;stroke-linecap:round;stroke-linejoin:round;stroke-miterlimit:4;stroke-dasharray:none;stroke-opacity:1" />
      <path
         inkscape:connector-curvature="0"
         id="path817-9-2-47-0-78"
         d="m 103.71915,104.82605 a 10.840382,3.6006833 0 0 0 -7.141962,0.8979 10.614895,3.3000334 0 0 1 7.167022,-0.87035 10.614895,3.3000334 0 0 1 5.67908,0.5165 10.840382,3.6006833 0 0 0 -5.70414,-0.54405 z m -7.472902,0.9945 a 10.840382,3.6006833 0 0 0 -0.22656,0.0756 10.614895,3.3000334 0 0 1 0.22656,-0.0756 z m -0.791704,0.2771 a 10.840382,3.6006833 0 0 0 -0.07619,0.0311 10.614895,3.3000334 0 0 1 0.07619,-0.0311 z m -0.629287,0.27282 a 10.840382,3.6006833 0 0 0 -0.16041,0.0813 10.614895,3.3000334 0 0 1 0.16041,-0.0813 z m -0.47672,0.25268 a 10.840382,3.6006833 0 0 0 -1.46978,1.80357 10.840382,3.6006833 0 0 0 10.840393,3.60071 10.840382,3.6006833 0 0 0 10.8404,-3.60071 10.840382,3.6006833 0 0 0 -0.58589,-1.15396 10.614895,3.3000334 0 0 1 0.38546,0.88091 10.614895,3.3000334 0 0 1 -10.61491,3.3 10.614895,3.3000334 0 0 1 -10.61491,-3.3 10.614895,3.3000334 0 0 1 1.219237,-1.53052 z m 19.427433,0.4641 a 10.614895,3.3000334 0 0 1 0.18815,0.17601 10.840382,3.6006833 0 0 0 -0.18815,-0.17601 z"
         style="opacity:1;fill:#666666;fill-opacity:1;stroke:none;stroke-width:0.50351304;stroke-linecap:round;stroke-linejoin:round;stroke-miterlimit:4;stroke-dasharray:none;stroke-opacity:1" />
      <path
         inkscape:connector-curvature="0"
         id="path817-9-2-47-0-0-7"
         d="m 88.831747,105.50179 a 4.2854619,3.6006833 0 0 0 3.967762,2.24626 4.2854619,3.6006833 0 0 0 3.958419,-2.22444 10.840382,3.6006833 0 0 1 -3.887562,0.24027 10.840382,3.6006833 0 0 1 -4.038619,-0.26209 z"
         style="opacity:1;fill:#4d4d4d;fill-opacity:1;stroke:none;stroke-width:0.31658277;stroke-linecap:round;stroke-linejoin:round;stroke-miterlimit:4;stroke-dasharray:none;stroke-opacity:1" />
      <ellipse
         ry="3.3000331"
         rx="10.614894"
         cy="108.15366"
         cx="82.046623"
         id="path817-9-2-47-0-9-5"
         style="opacity:1;fill:url(#radialGradient1855-7);fill-opacity:1;stroke:none;stroke-width:0.47699404;stroke-linecap:round;stroke-linejoin:round;stroke-miterlimit:4;stroke-dasharray:none;stroke-opacity:1" />
      <path
         inkscape:connector-curvature="0"
         id="path817-9-2-47-0-0-5"
         d="m 121.37811,111.76534 a 4.2854619,3.6006833 0 0 0 3.96777,2.24626 4.2854619,3.6006833 0 0 0 3.95842,-2.22443 10.840382,3.6006833 0 0 1 -3.88756,0.24026 10.840382,3.6006833 0 0 1 -4.03863,-0.26209 z"
         style="opacity:1;fill:#4d4d4d;fill-opacity:1;stroke:none;stroke-width:0.31658277;stroke-linecap:round;stroke-linejoin:round;stroke-miterlimit:4;stroke-dasharray:none;stroke-opacity:1" />
      <path
         inkscape:connector-curvature="0"
         id="path817-9-2-47-0-01"
         d="m 125.41674,104.82605 a 10.840382,3.6006833 0 0 0 -7.14197,0.8979 10.614895,3.3000334 0 0 1 7.16702,-0.87035 10.614895,3.3000334 0 0 1 5.67909,0.5165 10.840382,3.6006833 0 0 0 -5.70414,-0.54405 z m -7.47291,0.9945 a 10.840382,3.6006833 0 0 0 -0.22657,0.0756 10.614895,3.3000334 0 0 1 0.22657,-0.0756 z m -0.79171,0.2771 a 10.840382,3.6006833 0 0 0 -0.0762,0.0311 10.614895,3.3000334 0 0 1 0.0762,-0.0311 z m -0.62929,0.27282 a 10.840382,3.6006833 0 0 0 -0.1604,0.0813 10.614895,3.3000334 0 0 1 0.1604,-0.0813 z m -0.47671,0.25268 a 10.840382,3.6006833 0 0 0 -1.46978,1.80357 10.840382,3.6006833 0 0 0 10.8404,3.60071 10.840382,3.6006833 0 0 0 10.84039,-3.60071 10.840382,3.6006833 0 0 0 -0.58588,-1.15396 10.614895,3.3000334 0 0 1 0.38545,0.88091 10.614895,3.3000334 0 0 1 -10.61491,3.3 10.614895,3.3000334 0 0 1 -10.61491,-3.3 10.614895,3.3000334 0 0 1 1.21924,-1.53052 z m 19.42743,0.4641 a 10.614895,3.3000334 0 0 1 0.18815,0.17601 10.840382,3.6006833 0 0 0 -0.18815,-0.17601 z"
         style="opacity:1;fill:#666666;fill-opacity:1;stroke:none;stroke-width:0.50351304;stroke-linecap:round;stroke-linejoin:round;stroke-miterlimit:4;stroke-dasharray:none;stroke-opacity:1" />
      <path
         inkscape:connector-curvature="0"
         id="path817-9-2-47-0-0-40"
         d="m 110.52932,105.50179 a 4.2854619,3.6006833 0 0 0 3.96777,2.24626 4.2854619,3.6006833 0 0 0 3.95842,-2.22444 10.840382,3.6006833 0 0 1 -3.88757,0.24027 10.840382,3.6006833 0 0 1 -4.03862,-0.26209 z"
         style="opacity:1;fill:#4d4d4d;fill-opacity:1;stroke:none;stroke-width:0.31658277;stroke-linecap:round;stroke-linejoin:round;stroke-miterlimit:4;stroke-dasharray:none;stroke-opacity:1" />
      <ellipse
         ry="3.3000331"
         rx="10.614894"
         cy="108.15366"
         cx="103.74422"
         id="path817-9-2-47-0-9-3"
         style="opacity:1;fill:url(#radialGradient1855-76);fill-opacity:1;stroke:none;stroke-width:0.47699404;stroke-linecap:round;stroke-linejoin:round;stroke-miterlimit:4;stroke-dasharray:none;stroke-opacity:1" />
      <path
         inkscape:connector-curvature="0"
         id="path817-9-2-47-0-0-93"
         d="m 132.22691,105.50179 a 4.2854619,3.6006833 0 0 0 3.96776,2.24626 4.2854619,3.6006833 0 0 0 3.95842,-2.22444 10.840382,3.6006833 0 0 1 -3.88756,0.24027 10.840382,3.6006833 0 0 1 -4.03862,-0.26209 z"
         style="opacity:1;fill:#4d4d4d;fill-opacity:1;stroke:none;stroke-width:0.31658277;stroke-linecap:round;stroke-linejoin:round;stroke-miterlimit:4;stroke-dasharray:none;stroke-opacity:1" />
      <ellipse
         ry="3.3000331"
         rx="10.614894"
         cy="108.15366"
         cx="125.44178"
         id="path817-9-2-47-0-9-9"
         style="opacity:1;fill:url(#radialGradient1855-5);fill-opacity:1;stroke:none;stroke-width:0.47699404;stroke-linecap:round;stroke-linejoin:round;stroke-miterlimit:4;stroke-dasharray:none;stroke-opacity:1" />
      <path
         inkscape:connector-curvature="0"
         id="path817-9-2-47-0-4"
         d="m 71.172785,98.562503 a 10.840382,3.6006833 0 0 0 -7.141967,0.8979 10.614895,3.3000334 0 0 1 7.167023,-0.87034 10.614895,3.3000334 0 0 1 5.679087,0.51649 10.840382,3.6006833 0 0 0 -5.704143,-0.54405 z m -7.472902,0.9945 a 10.840382,3.6006833 0 0 0 -0.226565,0.0756 10.614895,3.3000334 0 0 1 0.226565,-0.0756 z m -0.791709,0.2771 a 10.840382,3.6006833 0 0 0 -0.07619,0.0311 10.614895,3.3000334 0 0 1 0.07619,-0.0311 z m -0.629286,0.272817 a 10.840382,3.6006833 0 0 0 -0.160406,0.0813 10.614895,3.3000334 0 0 1 0.160406,-0.0813 z m -0.476716,0.25268 a 10.840382,3.6006833 0 0 0 -1.469785,1.80357 10.840382,3.6006833 0 0 0 10.840398,3.60071 10.840382,3.6006833 0 0 0 10.840398,-3.60071 10.840382,3.6006833 0 0 0 -0.585885,-1.15396 10.614895,3.3000334 0 0 1 0.385453,0.88091 10.614895,3.3000334 0 0 1 -10.61491,3.3 10.614895,3.3000334 0 0 1 -10.614911,-3.3 10.614895,3.3000334 0 0 1 1.219242,-1.53052 z m 19.427434,0.46409 a 10.614895,3.3000334 0 0 1 0.188148,0.17602 10.840382,3.6006833 0 0 0 -0.188148,-0.17602 z"
         style="opacity:1;fill:#666666;fill-opacity:1;stroke:none;stroke-width:0.50351304;stroke-linecap:round;stroke-linejoin:round;stroke-miterlimit:4;stroke-dasharray:none;stroke-opacity:1" />
      <path
         inkscape:connector-curvature="0"
         id="path817-9-2-47-0-8"
         d="m 92.870366,98.562503 a 10.840382,3.6006833 0 0 0 -7.141966,0.8979 10.614895,3.3000334 0 0 1 7.167022,-0.87034 10.614895,3.3000334 0 0 1 5.679082,0.51649 10.840382,3.6006833 0 0 0 -5.704138,-0.54405 z m -7.472906,0.9945 a 10.840382,3.6006833 0 0 0 -0.226565,0.0756 10.614895,3.3000334 0 0 1 0.226565,-0.0756 z m -0.791704,0.2771 a 10.840382,3.6006833 0 0 0 -0.07619,0.0311 10.614895,3.3000334 0 0 1 0.07619,-0.0311 z m -0.629292,0.272817 a 10.840382,3.6006833 0 0 0 -0.160406,0.0813 10.614895,3.3000334 0 0 1 0.160406,-0.0813 z m -0.476715,0.25268 a 10.840382,3.6006833 0 0 0 -1.469781,1.80357 10.840382,3.6006833 0 0 0 10.840398,3.60071 10.840382,3.6006833 0 0 0 10.840394,-3.60071 10.840382,3.6006833 0 0 0 -0.58589,-1.15396 10.614895,3.3000334 0 0 1 0.38546,0.88091 10.614895,3.3000334 0 0 1 -10.614908,3.3 10.614895,3.3000334 0 0 1 -10.614911,-3.3 10.614895,3.3000334 0 0 1 1.219238,-1.53052 z m 19.427431,0.46409 a 10.614895,3.3000334 0 0 1 0.18815,0.17602 10.840382,3.6006833 0 0 0 -0.18815,-0.17602 z"
         style="opacity:1;fill:#666666;fill-opacity:1;stroke:none;stroke-width:0.50351304;stroke-linecap:round;stroke-linejoin:round;stroke-miterlimit:4;stroke-dasharray:none;stroke-opacity:1" />
      <path
         inkscape:connector-curvature="0"
         id="path817-9-2-47-0-0-2"
         d="m 78.434911,99.793383 a 4.2854619,3.6006833 0 0 0 3.967762,2.246257 4.2854619,3.6006833 0 0 0 3.958418,-2.224427 10.840382,3.6006833 0 0 1 -3.887561,0.240257 10.840382,3.6006833 0 0 1 -4.038619,-0.262087 z"
         style="opacity:1;fill:#4d4d4d;fill-opacity:1;stroke:none;stroke-width:0.31658277;stroke-linecap:round;stroke-linejoin:round;stroke-miterlimit:4;stroke-dasharray:none;stroke-opacity:1" />
      <path
         inkscape:connector-curvature="0"
         id="path817-9-2-47-0-1"
         d="m 114.56794,98.562503 a 10.840382,3.6006833 0 0 0 -7.14196,0.8979 10.614895,3.3000334 0 0 1 7.16702,-0.87034 10.614895,3.3000334 0 0 1 5.67909,0.51649 10.840382,3.6006833 0 0 0 -5.70415,-0.54405 z m -7.4729,0.9945 a 10.840382,3.6006833 0 0 0 -0.22656,0.0756 10.614895,3.3000334 0 0 1 0.22656,-0.0756 z m -0.79171,0.2771 a 10.840382,3.6006833 0 0 0 -0.0762,0.0311 10.614895,3.3000334 0 0 1 0.0762,-0.0311 z m -0.62928,0.272817 a 10.840382,3.6006833 0 0 0 -0.16041,0.0813 10.614895,3.3000334 0 0 1 0.16041,-0.0813 z m -0.47672,0.25268 a 10.840382,3.6006833 0 0 0 -1.46979,1.80357 10.840382,3.6006833 0 0 0 10.8404,3.60071 10.840382,3.6006833 0 0 0 10.8404,-3.60071 10.840382,3.6006833 0 0 0 -0.58588,-1.15396 10.614895,3.3000334 0 0 1 0.38545,0.88091 10.614895,3.3000334 0 0 1 -10.61491,3.3 10.614895,3.3000334 0 0 1 -10.61491,-3.3 10.614895,3.3000334 0 0 1 1.21924,-1.53052 z m 19.42743,0.46409 a 10.614895,3.3000334 0 0 1 0.18815,0.17602 10.840382,3.6006833 0 0 0 -0.18815,-0.17602 z"
         style="opacity:1;fill:#666666;fill-opacity:1;stroke:none;stroke-width:0.50351304;stroke-linecap:round;stroke-linejoin:round;stroke-miterlimit:4;stroke-dasharray:none;stroke-opacity:1" />
      <path
         inkscape:connector-curvature="0"
         id="path817-9-2-47-0-0-3"
         d="m 100.13249,99.793383 a 4.2854619,3.6006833 0 0 0 3.96776,2.246257 4.2854619,3.6006833 0 0 0 3.95842,-2.224427 10.840382,3.6006833 0 0 1 -3.88756,0.240257 10.840382,3.6006833 0 0 1 -4.03862,-0.262087 z"
         style="opacity:1;fill:#4d4d4d;fill-opacity:1;stroke:none;stroke-width:0.31658277;stroke-linecap:round;stroke-linejoin:round;stroke-miterlimit:4;stroke-dasharray:none;stroke-opacity:1" />
      <path
         inkscape:connector-curvature="0"
         id="path817-9-2-47-0-04"
         d="m 136.26553,98.562503 a 10.840382,3.6006833 0 0 0 -7.14197,0.8979 10.614895,3.3000334 0 0 1 7.16702,-0.87034 10.614895,3.3000334 0 0 1 5.67908,0.51649 10.840382,3.6006833 0 0 0 -5.70413,-0.54405 z m -7.47291,0.9945 a 10.840382,3.6006833 0 0 0 -0.22657,0.0756 10.614895,3.3000334 0 0 1 0.22657,-0.0756 z m -0.7917,0.2771 a 10.840382,3.6006833 0 0 0 -0.0762,0.0311 10.614895,3.3000334 0 0 1 0.0762,-0.0311 z m -0.6293,0.272817 a 10.840382,3.6006833 0 0 0 -0.1604,0.0813 10.614895,3.3000334 0 0 1 0.1604,-0.0813 z m -0.47671,0.25268 a 10.840382,3.6006833 0 0 0 -1.46978,1.80357 10.840382,3.6006833 0 0 0 10.8404,3.60071 10.840382,3.6006833 0 0 0 10.84039,-3.60071 10.840382,3.6006833 0 0 0 -0.58589,-1.15396 10.614895,3.3000334 0 0 1 0.38545,0.88091 10.614895,3.3000334 0 0 1 -10.6149,3.3 10.614895,3.3000334 0 0 1 -10.61491,-3.3 10.614895,3.3000334 0 0 1 1.21924,-1.53052 z m 19.42743,0.46409 a 10.614895,3.3000334 0 0 1 0.18815,0.17602 10.840382,3.6006833 0 0 0 -0.18815,-0.17602 z"
         style="opacity:1;fill:#666666;fill-opacity:1;stroke:none;stroke-width:0.50351304;stroke-linecap:round;stroke-linejoin:round;stroke-miterlimit:4;stroke-dasharray:none;stroke-opacity:1" />
      <path
         inkscape:connector-curvature="0"
         id="path817-9-2-47-0-042"
         d="m 82.47353,92.854093 a 10.840382,3.6006833 0 0 0 -7.141967,0.8979 10.614895,3.3000334 0 0 1 7.167023,-0.87034 10.614895,3.3000334 0 0 1 5.679082,0.51649 10.840382,3.6006833 0 0 0 -5.704138,-0.54405 z m -7.472907,0.9945 a 10.840382,3.6006833 0 0 0 -0.226565,0.0756 10.614895,3.3000334 0 0 1 0.226565,-0.0756 z m -0.791704,0.27711 a 10.840382,3.6006833 0 0 0 -0.07619,0.0311 10.614895,3.3000334 0 0 1 0.07619,-0.0311 z m -0.629291,0.27281 a 10.840382,3.6006833 0 0 0 -0.160406,0.0813 10.614895,3.3000334 0 0 1 0.160406,-0.0813 z m -0.476716,0.25269 a 10.840382,3.6006833 0 0 0 -1.46978,1.80356 10.840382,3.6006833 0 0 0 10.840398,3.600707 10.840382,3.6006833 0 0 0 10.840398,-3.600707 10.840382,3.6006833 0 0 0 -0.585889,-1.15396 10.614895,3.3000334 0 0 1 0.385453,0.88091 10.614895,3.3000334 0 0 1 -10.614906,3.30001 10.614895,3.3000334 0 0 1 -10.614916,-3.30001 10.614895,3.3000334 0 0 1 1.219242,-1.53051 z m 19.427434,0.46409 a 10.614895,3.3000334 0 0 1 0.188153,0.17601 10.840382,3.6006833 0 0 0 -0.188153,-0.17601 z"
         style="opacity:1;fill:#666666;fill-opacity:1;stroke:none;stroke-width:0.50351304;stroke-linecap:round;stroke-linejoin:round;stroke-miterlimit:4;stroke-dasharray:none;stroke-opacity:1" />
      <ellipse
         ry="3.3000331"
         rx="10.614894"
         cy="101.89011"
         cx="71.197838"
         id="path817-9-2-47-0-9-6"
         style="opacity:1;fill:url(#radialGradient1855-4);fill-opacity:1;stroke:none;stroke-width:0.47699404;stroke-linecap:round;stroke-linejoin:round;stroke-miterlimit:4;stroke-dasharray:none;stroke-opacity:1" />
      <ellipse
         ry="3.3000333"
         rx="10.614894"
         cy="107.88027"
         cx="60.420197"
         id="path817-9-2-47-0-9"
         style="opacity:1;fill:url(#radialGradient1855);fill-opacity:1;stroke:none;stroke-width:0.47699404;stroke-linecap:round;stroke-linejoin:round;stroke-miterlimit:4;stroke-dasharray:none;stroke-opacity:1" />
      <circle
         r="6.5092731"
         cy="105.16633"
         cx="60.047768"
         id="path2097"
         style="opacity:1;fill:url(#radialGradient3593);fill-opacity:1;stroke:none;stroke-width:0.3758131;stroke-linecap:round;stroke-linejoin:round;stroke-miterlimit:4;stroke-dasharray:none;stroke-opacity:1" />
      <path
         inkscape:connector-curvature="0"
         id="path817-9-2-47-0"
         d="m 60.395136,104.55266 a 10.840382,3.6006835 0 0 0 -7.141966,0.8979 10.614895,3.3000333 0 0 1 7.167022,-0.87035 10.614895,3.3000333 0 0 1 5.679087,0.5165 10.840382,3.6006835 0 0 0 -5.704143,-0.54405 z m -7.472907,0.99449 a 10.840382,3.6006835 0 0 0 -0.22656,0.0756 10.614895,3.3000333 0 0 1 0.22656,-0.0756 z m -0.791704,0.27711 a 10.840382,3.6006835 0 0 0 -0.07619,0.0311 10.614895,3.3000333 0 0 1 0.07619,-0.0311 z m -0.629286,0.27281 a 10.840382,3.6006835 0 0 0 -0.160406,0.0813 10.614895,3.3000333 0 0 1 0.160406,-0.0813 z m -0.476716,0.25269 a 10.840382,3.6006835 0 0 0 -1.469785,1.80356 10.840382,3.6006835 0 0 0 10.840398,3.60072 10.840382,3.6006835 0 0 0 10.840398,-3.60072 10.840382,3.6006835 0 0 0 -0.585884,-1.15396 10.614895,3.3000333 0 0 1 0.385453,0.88092 10.614895,3.3000333 0 0 1 -10.614911,3.3 10.614895,3.3000333 0 0 1 -10.614911,-3.3 10.614895,3.3000333 0 0 1 1.219242,-1.53052 z m 19.427434,0.46409 a 10.614895,3.3000333 0 0 1 0.188149,0.17602 10.840382,3.6006835 0 0 0 -0.188149,-0.17602 z"
         style="opacity:1;fill:#666666;fill-opacity:1;stroke:none;stroke-width:0.50351304;stroke-linecap:round;stroke-linejoin:round;stroke-miterlimit:4;stroke-dasharray:none;stroke-opacity:1" />
      <path
         inkscape:connector-curvature="0"
         id="path817-9-2-47-0-6"
         d="m 104.17111,92.854093 a 10.840382,3.6006833 0 0 0 -7.14197,0.8979 10.614895,3.3000334 0 0 1 7.16702,-0.87034 10.614895,3.3000334 0 0 1 5.67909,0.51649 10.840382,3.6006833 0 0 0 -5.70414,-0.54405 z m -7.472905,0.9945 a 10.840382,3.6006833 0 0 0 -0.226565,0.0756 10.614895,3.3000334 0 0 1 0.226565,-0.0756 z m -0.791709,0.27711 a 10.840382,3.6006833 0 0 0 -0.07619,0.0311 10.614895,3.3000334 0 0 1 0.07619,-0.0311 z m -0.629287,0.27281 a 10.840382,3.6006833 0 0 0 -0.160405,0.0813 10.614895,3.3000334 0 0 1 0.160405,-0.0813 z m -0.476715,0.25269 a 10.840382,3.6006833 0 0 0 -1.469785,1.80356 10.840382,3.6006833 0 0 0 10.840401,3.600707 10.840382,3.6006833 0 0 0 10.84039,-3.600707 10.840382,3.6006833 0 0 0 -0.58588,-1.15396 10.614895,3.3000334 0 0 1 0.38545,0.88091 10.614895,3.3000334 0 0 1 -10.61491,3.30001 10.614895,3.3000334 0 0 1 -10.614908,-3.30001 10.614895,3.3000334 0 0 1 1.219242,-1.53051 z m 19.427436,0.46409 a 10.614895,3.3000334 0 0 1 0.18815,0.17601 10.840382,3.6006833 0 0 0 -0.18815,-0.17601 z"
         style="opacity:1;fill:#666666;fill-opacity:1;stroke:none;stroke-width:0.50351304;stroke-linecap:round;stroke-linejoin:round;stroke-miterlimit:4;stroke-dasharray:none;stroke-opacity:1" />
      <path
         inkscape:connector-curvature="0"
         id="path817-9-2-47-0-0-42"
         d="m 121.83007,99.793383 a 4.2854619,3.6006833 0 0 0 3.96776,2.246257 4.2854619,3.6006833 0 0 0 3.95842,-2.224427 10.840382,3.6006833 0 0 1 -3.88756,0.240257 10.840382,3.6006833 0 0 1 -4.03862,-0.262087 z"
         style="opacity:1;fill:#4d4d4d;fill-opacity:1;stroke:none;stroke-width:0.31658277;stroke-linecap:round;stroke-linejoin:round;stroke-miterlimit:4;stroke-dasharray:none;stroke-opacity:1" />
      <path
         inkscape:connector-curvature="0"
         id="path817-9-2-47-0-0-6"
         d="m 89.283699,93.529833 a 4.2854619,3.6006833 0 0 0 3.967762,2.24626 4.2854619,3.6006833 0 0 0 3.958419,-2.22443 10.840382,3.6006833 0 0 1 -3.887562,0.24026 10.840382,3.6006833 0 0 1 -4.038619,-0.26209 z"
         style="opacity:1;fill:#4d4d4d;fill-opacity:1;stroke:none;stroke-width:0.31658277;stroke-linecap:round;stroke-linejoin:round;stroke-miterlimit:4;stroke-dasharray:none;stroke-opacity:1" />
      <ellipse
         ry="3.3000331"
         rx="10.614894"
         cy="96.181709"
         cx="82.498589"
         id="path817-9-2-47-0-9-8"
         style="opacity:1;fill:url(#radialGradient1855-56);fill-opacity:1;stroke:none;stroke-width:0.47699404;stroke-linecap:round;stroke-linejoin:round;stroke-miterlimit:4;stroke-dasharray:none;stroke-opacity:1" />
      <ellipse
         ry="3.3000331"
         rx="10.614894"
         cy="101.89011"
         cx="92.895416"
         id="path817-9-2-47-0-9-2"
         style="opacity:1;fill:url(#radialGradient1855-0);fill-opacity:1;stroke:none;stroke-width:0.47699404;stroke-linecap:round;stroke-linejoin:round;stroke-miterlimit:4;stroke-dasharray:none;stroke-opacity:1" />
      <path
         inkscape:connector-curvature="0"
         id="path817-9-2-47-0-75"
         d="m 125.86869,92.854093 a 10.840382,3.6006833 0 0 0 -7.14197,0.8979 10.614895,3.3000334 0 0 1 7.16703,-0.87034 10.614895,3.3000334 0 0 1 5.67908,0.51649 10.840382,3.6006833 0 0 0 -5.70414,-0.54405 z m -7.47291,0.9945 a 10.840382,3.6006833 0 0 0 -0.22656,0.0756 10.614895,3.3000334 0 0 1 0.22656,-0.0756 z m -0.7917,0.27711 a 10.840382,3.6006833 0 0 0 -0.0762,0.0311 10.614895,3.3000334 0 0 1 0.0762,-0.0311 z m -0.62929,0.27281 a 10.840382,3.6006833 0 0 0 -0.16041,0.0813 10.614895,3.3000334 0 0 1 0.16041,-0.0813 z m -0.47672,0.25269 a 10.840382,3.6006833 0 0 0 -1.46978,1.80356 10.840382,3.6006833 0 0 0 10.8404,3.600707 10.840382,3.6006833 0 0 0 10.8404,-3.600707 10.840382,3.6006833 0 0 0 -0.58589,-1.15396 10.614895,3.3000334 0 0 1 0.38545,0.88091 10.614895,3.3000334 0 0 1 -10.6149,3.30001 10.614895,3.3000334 0 0 1 -10.61492,-3.30001 10.614895,3.3000334 0 0 1 1.21924,-1.53051 z m 19.42744,0.46409 a 10.614895,3.3000334 0 0 1 0.18815,0.17601 10.840382,3.6006833 0 0 0 -0.18815,-0.17601 z"
         style="opacity:1;fill:#666666;fill-opacity:1;stroke:none;stroke-width:0.50351304;stroke-linecap:round;stroke-linejoin:round;stroke-miterlimit:4;stroke-dasharray:none;stroke-opacity:1" />
      <ellipse
         ry="3.3000331"
         rx="10.614894"
         cy="101.89011"
         cx="114.593"
         id="path817-9-2-47-0-9-61"
         style="opacity:1;fill:url(#radialGradient1855-06);fill-opacity:1;stroke:none;stroke-width:0.47699404;stroke-linecap:round;stroke-linejoin:round;stroke-miterlimit:4;stroke-dasharray:none;stroke-opacity:1" />
      <path
         inkscape:connector-curvature="0"
         id="path817-9-2-47-0-0-97"
         d="m 143.52764,99.793383 a 4.2854619,3.6006833 0 0 0 3.96777,2.246257 4.2854619,3.6006833 0 0 0 3.95842,-2.224427 10.840382,3.6006833 0 0 1 -3.88756,0.240257 10.840382,3.6006833 0 0 1 -4.03863,-0.262087 z"
         style="opacity:1;fill:#4d4d4d;fill-opacity:1;stroke:none;stroke-width:0.31658277;stroke-linecap:round;stroke-linejoin:round;stroke-miterlimit:4;stroke-dasharray:none;stroke-opacity:1" />
      <path
         inkscape:connector-curvature="0"
         id="path817-9-2-47-0-0-20"
         d="m 110.98128,93.529833 a 4.2854619,3.6006833 0 0 0 3.96776,2.24626 4.2854619,3.6006833 0 0 0 3.95842,-2.22443 10.840382,3.6006833 0 0 1 -3.88756,0.24026 10.840382,3.6006833 0 0 1 -4.03862,-0.26209 z"
         style="opacity:1;fill:#4d4d4d;fill-opacity:1;stroke:none;stroke-width:0.31658277;stroke-linecap:round;stroke-linejoin:round;stroke-miterlimit:4;stroke-dasharray:none;stroke-opacity:1" />
      <ellipse
         ry="3.3000331"
         rx="10.614894"
         cy="96.181709"
         cx="104.19616"
         id="path817-9-2-47-0-9-94"
         style="opacity:1;fill:url(#radialGradient1855-3);fill-opacity:1;stroke:none;stroke-width:0.47699404;stroke-linecap:round;stroke-linejoin:round;stroke-miterlimit:4;stroke-dasharray:none;stroke-opacity:1" />
      <path
         inkscape:connector-curvature="0"
         id="path817-9-2-47-0-0-76"
         d="m 132.67886,93.529833 a 4.2854619,3.6006833 0 0 0 3.96776,2.24626 4.2854619,3.6006833 0 0 0 3.95842,-2.22443 10.840382,3.6006833 0 0 1 -3.88756,0.24026 10.840382,3.6006833 0 0 1 -4.03862,-0.26209 z"
         style="opacity:1;fill:#4d4d4d;fill-opacity:1;stroke:none;stroke-width:0.31658277;stroke-linecap:round;stroke-linejoin:round;stroke-miterlimit:4;stroke-dasharray:none;stroke-opacity:1" />
      <ellipse
         ry="3.3000331"
         rx="10.614894"
         cy="96.181709"
         cx="125.89374"
         id="path817-9-2-47-0-9-54"
         style="opacity:1;fill:url(#radialGradient1855-08);fill-opacity:1;stroke:none;stroke-width:0.47699404;stroke-linecap:round;stroke-linejoin:round;stroke-miterlimit:4;stroke-dasharray:none;stroke-opacity:1" />
      <path
         inkscape:connector-curvature="0"
         id="path817-9-2-47-0-15"
         d="m 136.71748,86.590553 a 10.840382,3.6006833 0 0 0 -7.14197,0.89789 10.614895,3.3000334 0 0 1 7.16702,-0.87034 10.614895,3.3000334 0 0 1 5.67909,0.51649 10.840382,3.6006833 0 0 0 -5.70414,-0.54404 z m -7.47291,0.99449 a 10.840382,3.6006833 0 0 0 -0.22656,0.0756 10.614895,3.3000334 0 0 1 0.22656,-0.0756 z m -0.7917,0.27711 a 10.840382,3.6006833 0 0 0 -0.0762,0.0311 10.614895,3.3000334 0 0 1 0.0762,-0.0311 z m -0.62929,0.27281 a 10.840382,3.6006833 0 0 0 -0.16041,0.0813 10.614895,3.3000334 0 0 1 0.16041,-0.0813 z m -0.47672,0.25269 a 10.840382,3.6006833 0 0 0 -1.46978,1.80356 10.840382,3.6006833 0 0 0 10.8404,3.60071 10.840382,3.6006833 0 0 0 10.84039,-3.60071 10.840382,3.6006833 0 0 0 -0.58589,-1.15396 10.614895,3.3000334 0 0 1 0.38546,0.88091 10.614895,3.3000334 0 0 1 -10.61491,3.30001 10.614895,3.3000334 0 0 1 -10.61491,-3.30001 10.614895,3.3000334 0 0 1 1.21924,-1.53051 z m 19.42743,0.46409 a 10.614895,3.3000334 0 0 1 0.18815,0.17602 10.840382,3.6006833 0 0 0 -0.18815,-0.17602 z"
         style="opacity:1;fill:#666666;fill-opacity:1;stroke:none;stroke-width:0.50351304;stroke-linecap:round;stroke-linejoin:round;stroke-miterlimit:4;stroke-dasharray:none;stroke-opacity:1" />
      <path
         inkscape:connector-curvature="0"
         id="path817-9-2-47-0-5"
         d="m 147.56627,92.854093 a 10.840382,3.6006833 0 0 0 -7.14197,0.8979 10.614895,3.3000334 0 0 1 7.16702,-0.87034 10.614895,3.3000334 0 0 1 5.67908,0.51649 10.840382,3.6006833 0 0 0 -5.70413,-0.54405 z m -7.47291,0.9945 a 10.840382,3.6006833 0 0 0 -0.22656,0.0756 10.614895,3.3000334 0 0 1 0.22656,-0.0756 z m -0.7917,0.27711 a 10.840382,3.6006833 0 0 0 -0.0762,0.0311 10.614895,3.3000334 0 0 1 0.0762,-0.0311 z m -0.62929,0.27281 a 10.840382,3.6006833 0 0 0 -0.16041,0.0813 10.614895,3.3000334 0 0 1 0.16041,-0.0813 z m -0.47672,0.25269 a 10.840382,3.6006833 0 0 0 -1.46978,1.80356 10.840382,3.6006833 0 0 0 10.8404,3.600707 10.840382,3.6006833 0 0 0 10.84039,-3.600707 10.840382,3.6006833 0 0 0 -0.58588,-1.15396 10.614895,3.3000334 0 0 1 0.38545,0.88091 10.614895,3.3000334 0 0 1 -10.61491,3.30001 10.614895,3.3000334 0 0 1 -10.61491,-3.30001 10.614895,3.3000334 0 0 1 1.21924,-1.53051 z m 19.42743,0.46409 a 10.614895,3.3000334 0 0 1 0.18815,0.17601 10.840382,3.6006833 0 0 0 -0.18815,-0.17601 z"
         style="opacity:1;fill:#666666;fill-opacity:1;stroke:none;stroke-width:0.50351304;stroke-linecap:round;stroke-linejoin:round;stroke-miterlimit:4;stroke-dasharray:none;stroke-opacity:1" />
      <path
         inkscape:connector-curvature="0"
         id="path817-9-2-47-0-17"
         d="m 158.41505,86.590553 a 10.840382,3.6006833 0 0 0 -7.14196,0.89789 10.614895,3.3000334 0 0 1 7.16702,-0.87034 10.614895,3.3000334 0 0 1 5.67908,0.51649 10.840382,3.6006833 0 0 0 -5.70414,-0.54404 z m -7.4729,0.99449 a 10.840382,3.6006833 0 0 0 -0.22657,0.0756 10.614895,3.3000334 0 0 1 0.22657,-0.0756 z m -0.79171,0.27711 a 10.840382,3.6006833 0 0 0 -0.0762,0.0311 10.614895,3.3000334 0 0 1 0.0762,-0.0311 z m -0.62929,0.27281 a 10.840382,3.6006833 0 0 0 -0.1604,0.0813 10.614895,3.3000334 0 0 1 0.1604,-0.0813 z m -0.47671,0.25269 a 10.840382,3.6006833 0 0 0 -1.46978,1.80356 10.840382,3.6006833 0 0 0 10.84039,3.60071 10.840382,3.6006833 0 0 0 10.8404,-3.60071 10.840382,3.6006833 0 0 0 -0.58588,-1.15396 10.614895,3.3000334 0 0 1 0.38545,0.88091 10.614895,3.3000334 0 0 1 -10.61491,3.30001 10.614895,3.3000334 0 0 1 -10.61491,-3.30001 10.614895,3.3000334 0 0 1 1.21924,-1.53051 z m 19.42743,0.46409 a 10.614895,3.3000334 0 0 1 0.18815,0.17602 10.840382,3.6006833 0 0 0 -0.18815,-0.17602 z"
         style="opacity:1;fill:#666666;fill-opacity:1;stroke:none;stroke-width:0.50351304;stroke-linecap:round;stroke-linejoin:round;stroke-miterlimit:4;stroke-dasharray:none;stroke-opacity:1" />
      <ellipse
         ry="3.3000331"
         rx="10.614894"
         cy="89.918159"
         cx="136.74252"
         id="path817-9-2-47-0-9-69"
         style="opacity:1;fill:url(#radialGradient1855-07);fill-opacity:1;stroke:none;stroke-width:0.47699404;stroke-linecap:round;stroke-linejoin:round;stroke-miterlimit:4;stroke-dasharray:none;stroke-opacity:1" />
      <ellipse
         ry="3.3000331"
         rx="10.614894"
         cy="96.181709"
         cx="147.59132"
         id="path817-9-2-47-0-9-58"
         style="opacity:1;fill:url(#radialGradient1855-8);fill-opacity:1;stroke:none;stroke-width:0.47699404;stroke-linecap:round;stroke-linejoin:round;stroke-miterlimit:4;stroke-dasharray:none;stroke-opacity:1" />
      <ellipse
         ry="3.3000331"
         rx="10.614894"
         cy="89.918159"
         cx="158.44009"
         id="path817-9-2-47-0-9-52"
         style="opacity:1;fill:url(#radialGradient1855-00);fill-opacity:1;stroke:none;stroke-width:0.47699404;stroke-linecap:round;stroke-linejoin:round;stroke-miterlimit:4;stroke-dasharray:none;stroke-opacity:1" />
      <ellipse
         ry="3.3000331"
         rx="10.614894"
         cy="101.89011"
         cx="136.29057"
         id="path817-9-2-47-0-9-4"
         style="opacity:1;fill:url(#radialGradient1855-9);fill-opacity:1;stroke:none;stroke-width:0.47699404;stroke-linecap:round;stroke-linejoin:round;stroke-miterlimit:4;stroke-dasharray:none;stroke-opacity:1" />
      <path
         inkscape:connector-curvature="0"
         id="path817-9-2-47-0-41"
         d="m 93.322318,86.590553 a 10.840382,3.6006833 0 0 0 -7.141966,0.89789 10.614895,3.3000334 0 0 1 7.167022,-0.87034 10.614895,3.3000334 0 0 1 5.679082,0.51649 10.840382,3.6006833 0 0 0 -5.704138,-0.54404 z m -7.472906,0.99449 a 10.840382,3.6006833 0 0 0 -0.226561,0.0756 10.614895,3.3000334 0 0 1 0.226561,-0.0756 z m -0.791704,0.27711 a 10.840382,3.6006833 0 0 0 -0.07619,0.0311 10.614895,3.3000334 0 0 1 0.07619,-0.0311 z m -0.629287,0.27281 a 10.840382,3.6006833 0 0 0 -0.16041,0.0813 10.614895,3.3000334 0 0 1 0.16041,-0.0813 z m -0.47672,0.25269 a 10.840382,3.6006833 0 0 0 -1.469781,1.80356 10.840382,3.6006833 0 0 0 10.840398,3.60071 10.840382,3.6006833 0 0 0 10.840402,-3.60071 10.840382,3.6006833 0 0 0 -0.58589,-1.15396 10.614895,3.3000334 0 0 1 0.38545,0.88091 10.614895,3.3000334 0 0 1 -10.614906,3.30001 10.614895,3.3000334 0 0 1 -10.61491,-3.30001 10.614895,3.3000334 0 0 1 1.219237,-1.53051 z m 19.427429,0.46409 a 10.614895,3.3000334 0 0 1 0.18816,0.17602 10.840382,3.6006833 0 0 0 -0.18816,-0.17602 z"
         style="opacity:1;fill:#666666;fill-opacity:1;stroke:none;stroke-width:0.50351304;stroke-linecap:round;stroke-linejoin:round;stroke-miterlimit:4;stroke-dasharray:none;stroke-opacity:1" />
      <ellipse
         ry="3.3000331"
         rx="10.614894"
         cy="89.918159"
         cx="93.347374"
         id="path817-9-2-47-0-9-45"
         style="opacity:1;fill:url(#radialGradient1855-80);fill-opacity:1;stroke:none;stroke-width:0.47699404;stroke-linecap:round;stroke-linejoin:round;stroke-miterlimit:4;stroke-dasharray:none;stroke-opacity:1" />
      <path
         inkscape:connector-curvature="0"
         id="path817-9-2-47-0-95"
         d="m 115.0199,86.590553 a 10.840382,3.6006833 0 0 0 -7.14197,0.89789 10.614895,3.3000334 0 0 1 7.16702,-0.87034 10.614895,3.3000334 0 0 1 5.67909,0.51649 10.840382,3.6006833 0 0 0 -5.70414,-0.54404 z m -7.47291,0.99449 a 10.840382,3.6006833 0 0 0 -0.22656,0.0756 10.614895,3.3000334 0 0 1 0.22656,-0.0756 z m -0.7917,0.27711 a 10.840382,3.6006833 0 0 0 -0.0762,0.0311 10.614895,3.3000334 0 0 1 0.0762,-0.0311 z m -0.62929,0.27281 a 10.840382,3.6006833 0 0 0 -0.16041,0.0813 10.614895,3.3000334 0 0 1 0.16041,-0.0813 z m -0.47672,0.25269 a 10.840382,3.6006833 0 0 0 -1.46978,1.80356 10.840382,3.6006833 0 0 0 10.8404,3.60071 10.840382,3.6006833 0 0 0 10.84039,-3.60071 10.840382,3.6006833 0 0 0 -0.58588,-1.15396 10.614895,3.3000334 0 0 1 0.38545,0.88091 10.614895,3.3000334 0 0 1 -10.61491,3.30001 10.614895,3.3000334 0 0 1 -10.61491,-3.30001 10.614895,3.3000334 0 0 1 1.21924,-1.53051 z m 19.42744,0.46409 a 10.614895,3.3000334 0 0 1 0.18814,0.17602 10.840382,3.6006833 0 0 0 -0.18814,-0.17602 z"
         style="opacity:1;fill:#666666;fill-opacity:1;stroke:none;stroke-width:0.50351304;stroke-linecap:round;stroke-linejoin:round;stroke-miterlimit:4;stroke-dasharray:none;stroke-opacity:1" />
      <ellipse
         ry="3.3000331"
         rx="10.614894"
         cy="89.918159"
         cx="115.04495"
         id="path817-9-2-47-0-9-88"
         style="opacity:1;fill:url(#radialGradient1855-91);fill-opacity:1;stroke:none;stroke-width:0.47699404;stroke-linecap:round;stroke-linejoin:round;stroke-miterlimit:4;stroke-dasharray:none;stroke-opacity:1" />
    </g>
  </g>
</svg>
